<svg width="32" height="32" viewBox="0 0 32 32" fill="none" xmlns="http://www.w3.org/2000/svg">
  <!-- Location Pin Shape - Küçültülmüş -->
  <path d="M24 12C24 8.1 20.9 5 17 5C13.1 5 10 8.1 10 12C10 15.9 17 27 17 27C17 27 24 15.9 24 12Z" fill="#A78BFA"/>
  
  <!-- White circle background -->
  <circle cx="17" cy="12" r="5" fill="#FFFFFF"/>
  
  <!-- Dark purple inner circle -->
  <circle cx="17" cy="12" r="4" fill="#1E0A3C"/>
  
  <!-- Stylized S curve -->
  <path d="M17 9.5C17.8 9.5 18.5 10.2 18.5 11C18.5 11.4 18.3 11.7 18 12C18.3 12.3 18.5 12.6 18.5 13C18.5 13.8 17.8 14.5 17 14.5C16.2 14.5 15.5 13.8 15.5 13" stroke="#FFFFFF" stroke-width="0.8" stroke-linecap="round" fill="none"/>
</svg>
